<?xml version="1.0" encoding="utf-8"?>
<!-- Generator: Adobe Illustrator 26.2.1, SVG Export Plug-In . SVG Version: 6.00 Build 0)  -->
<svg version="1.1" id="Layer_1" xmlns="http://www.w3.org/2000/svg" xmlns:xlink="http://www.w3.org/1999/xlink" x="0px" y="0px"
	 viewBox="0 0 300 300" style="enable-background:new 0 0 300 300;" xml:space="preserve">
<style type="text/css">
	.st0{fill:#F4F4F4;stroke:#000000;stroke-width:0.9868;stroke-miterlimit:19.7368;}
</style>
<path class="st0" d="M159.9,78.7l26.5-64.3l-9.2,68.9l-0.2,1.8l1.1-1.5l42.2-55.3l-26.7,64.2l-0.7,1.7l1.5-1.1l55.1-42.5l-42.5,55.1
	l-1.1,1.5l1.7-0.7l64.2-26.7L216.3,122l-1.5,1.1l1.8-0.2l68.9-9.2l-64.3,26.5l-1.7,0.7l1.8,0.2l69,8.9l-69,8.9l-1.8,0.2l1.7,0.7
	l64.3,26.5l-68.9-9.2l-1.8-0.2l1.5,1.1l55.3,42.2l-64.2-26.7l-1.7-0.7l1.1,1.5l42.5,55.1l-55.1-42.5l-1.5-1.1l0.7,1.7l26.7,64.2
	L178,216.3l-1.1-1.5l0.2,1.8l9.2,68.9l-26.5-64.3l-0.7-1.7l-0.2,1.8l-8.9,69l-8.9-69l-0.2-1.8l-0.7,1.7l-26.5,64.3l9.2-68.9l0.2-1.8
	l-1.1,1.5l-42.2,55.3l26.7-64.2l0.7-1.7l-1.5,1.1l-55.1,42.5l42.5-55.1l1.1-1.5l-1.7,0.7l-64.2,26.7L83.7,178l1.5-1.1l-1.8,0.2
	l-68.9,9.2l64.3-26.5l1.7-0.7l-1.8-0.2l-69-8.9l69-8.9l1.8-0.2l-1.7-0.7l-64.3-26.5l68.9,9.2l1.8,0.2l-1.5-1.1L28.4,79.8l64.2,26.7
	l1.7,0.7l-1.1-1.5L50.7,50.7l55.1,42.5l1.5,1.1l-0.7-1.7L79.8,28.4L122,83.7l1.1,1.5l-0.2-1.8l-9.2-68.9l26.5,64.3l0.7,1.7l0.2-1.8
	l8.9-69l8.9,69l0.2,1.8L159.9,78.7z"/>
</svg>
