<svg width="22" height="16" viewBox="0 0 22 16" fill="#fff" xmlns="http://www.w3.org/2000/svg">
<path d="M17.73 1.4101L16.45 2.4101L11 6.4601L5.54995 2.3701L4.26995 1.3701C3.96841 1.12064 3.6003 0.965136 3.21124 0.922846C2.82218 0.880556 2.42926 0.953339 2.08116 1.13218C1.73306 1.31102 1.44508 1.58806 1.25289 1.92897C1.06071 2.26988 0.97276 2.65969 0.999952 3.0501V14.6401C0.999952 15.0008 1.14324 15.3467 1.39829 15.6018C1.65334 15.8568 1.99926 16.0001 2.35995 16.0001H5.54995V8.2801L11 12.3701L16.45 8.2801V16.0001H19.64C20.0006 16.0001 20.3466 15.8568 20.6016 15.6018C20.8567 15.3467 21 15.0008 21 14.6401V3.0501C21.0187 2.66306 20.9247 2.2789 20.7292 1.94432C20.5337 1.60974 20.2453 1.33914 19.8989 1.16543C19.5525 0.99171 19.1632 0.922355 18.7781 0.965791C18.3931 1.00923 18.0289 1.16358 17.73 1.4101V1.4101Z" fill="#fff"/>
</svg>
