<svg width="24" height="24" viewBox="0 0 24 24" fill="#fff" xmlns="http://www.w3.org/2000/svg">
<path fill-rule="evenodd" clip-rule="evenodd" d="M5.17104 3.00904C5.17104 4.21744 4.19144 5.19704 2.98304 5.19704C1.77464 5.19704 0.795044 4.21744 0.795044 3.00904C0.795044 1.80065 1.77464 0.821045 2.98304 0.821045C4.19144 0.821045 5.17104 1.80065 5.17104 3.00904ZM7.23697 18.9939V6.85493H10.855V8.51493H10.906C11.409 7.56193 12.639 6.55493 14.474 6.55493C18.296 6.55493 19 9.06793 19 12.3379V18.9949H15.229V13.0909C15.229 11.6839 15.205 9.87293 13.268 9.87293C11.304 9.87293 11.006 11.4069 11.006 12.9909V18.9939H7.23697ZM4.86997 6.85493H1.09497V18.9939H4.86997V6.85493Z" fill="#fff"/>
</svg>
